<mxfile host="65bd71144e">
    <diagram name="pynvest-tools" id="QcfjFlC14eD7CDKg3b7T">
        <mxGraphModel dx="1548" dy="1018" grid="0" gridSize="10" guides="1" tooltips="1" connect="1" arrows="1" fold="1" page="0" pageScale="1" pageWidth="850" pageHeight="1100" background="#18141D" math="0" shadow="0">
            <root>
                <mxCell id="0"/>
                <mxCell id="1" parent="0"/>
                <mxCell id="39" value="AWS Cloud" style="sketch=0;outlineConnect=0;gradientColor=none;html=1;whiteSpace=wrap;fontSize=12;fontStyle=0;shape=mxgraph.aws4.group;grIcon=mxgraph.aws4.group_aws_cloud;strokeColor=#AAB7B8;fillColor=none;verticalAlign=top;align=left;spacingLeft=30;fontColor=#AAB7B8;dashed=0;" parent="1" vertex="1">
                    <mxGeometry x="-65" y="-93" width="1535" height="458" as="geometry"/>
                </mxCell>
                <mxCell id="48" style="edgeStyle=orthogonalEdgeStyle;html=1;strokeColor=#808080;strokeWidth=2;" parent="1" source="7" target="47" edge="1">
                    <mxGeometry relative="1" as="geometry">
                        <Array as="points">
                            <mxPoint x="104" y="82"/>
                            <mxPoint x="104" y="82"/>
                        </Array>
                    </mxGeometry>
                </mxCell>
                <mxCell id="7" value="&lt;font color=&quot;#808080&quot;&gt;EventBridge&lt;/font&gt;" style="sketch=0;points=[[0,0,0],[0.25,0,0],[0.5,0,0],[0.75,0,0],[1,0,0],[0,1,0],[0.25,1,0],[0.5,1,0],[0.75,1,0],[1,1,0],[0,0.25,0],[0,0.5,0],[0,0.75,0],[1,0.25,0],[1,0.5,0],[1,0.75,0]];outlineConnect=0;fontColor=#232F3E;gradientColor=#FF4F8B;gradientDirection=north;fillColor=#BC1356;strokeColor=#ffffff;dashed=0;verticalLabelPosition=bottom;verticalAlign=top;align=center;html=1;fontSize=12;fontStyle=0;aspect=fixed;shape=mxgraph.aws4.resourceIcon;resIcon=mxgraph.aws4.eventbridge;" parent="1" vertex="1">
                    <mxGeometry x="-45" y="42.5" width="78" height="78" as="geometry"/>
                </mxCell>
                <mxCell id="17" style="edgeStyle=orthogonalEdgeStyle;html=1;strokeColor=#808080;strokeWidth=2;" parent="1" source="8" target="9" edge="1">
                    <mxGeometry relative="1" as="geometry">
                        <Array as="points">
                            <mxPoint x="377" y="83.5"/>
                            <mxPoint x="377" y="-2.5"/>
                        </Array>
                    </mxGeometry>
                </mxCell>
                <mxCell id="18" style="edgeStyle=orthogonalEdgeStyle;html=1;strokeColor=#808080;strokeWidth=2;" parent="1" source="8" target="10" edge="1">
                    <mxGeometry relative="1" as="geometry">
                        <Array as="points">
                            <mxPoint x="377" y="83.5"/>
                            <mxPoint x="377" y="183.5"/>
                        </Array>
                    </mxGeometry>
                </mxCell>
                <mxCell id="40" style="edgeStyle=orthogonalEdgeStyle;html=1;strokeColor=#808080;strokeWidth=2;fontSize=12;fontColor=#808080;startArrow=classic;startFill=1;" parent="1" source="8" target="37" edge="1">
                    <mxGeometry relative="1" as="geometry">
                        <Array as="points">
                            <mxPoint x="274" y="-7"/>
                            <mxPoint x="-140" y="-7"/>
                        </Array>
                    </mxGeometry>
                </mxCell>
                <mxCell id="8" value="AWS Lambda" style="sketch=0;outlineConnect=0;fontColor=#232F3E;gradientColor=none;strokeColor=#ffffff;fillColor=#232F3E;dashed=0;verticalLabelPosition=middle;verticalAlign=bottom;align=center;html=1;whiteSpace=wrap;fontSize=10;fontStyle=1;spacing=3;shape=mxgraph.aws4.productIcon;prIcon=mxgraph.aws4.lambda;" parent="1" vertex="1">
                    <mxGeometry x="232" y="33.5" width="80" height="100" as="geometry"/>
                </mxCell>
                <mxCell id="9" value="Amazon SQS" style="sketch=0;outlineConnect=0;fontColor=#232F3E;gradientColor=none;strokeColor=#ffffff;fillColor=#232F3E;dashed=0;verticalLabelPosition=middle;verticalAlign=bottom;align=center;html=1;whiteSpace=wrap;fontSize=10;fontStyle=1;spacing=3;shape=mxgraph.aws4.productIcon;prIcon=mxgraph.aws4.sqs;" parent="1" vertex="1">
                    <mxGeometry x="412" y="-53" width="80" height="100" as="geometry"/>
                </mxCell>
                <mxCell id="10" value="Amazon SQS" style="sketch=0;outlineConnect=0;fontColor=#232F3E;gradientColor=none;strokeColor=#ffffff;fillColor=#232F3E;dashed=0;verticalLabelPosition=middle;verticalAlign=bottom;align=center;html=1;whiteSpace=wrap;fontSize=10;fontStyle=1;spacing=3;shape=mxgraph.aws4.productIcon;prIcon=mxgraph.aws4.sqs;" parent="1" vertex="1">
                    <mxGeometry x="412" y="133" width="80" height="100" as="geometry"/>
                </mxCell>
                <mxCell id="21" style="edgeStyle=orthogonalEdgeStyle;curved=1;html=1;strokeColor=#808080;strokeWidth=2;" parent="1" source="11" target="10" edge="1">
                    <mxGeometry relative="1" as="geometry"/>
                </mxCell>
                <mxCell id="23" style="edgeStyle=orthogonalEdgeStyle;html=1;strokeColor=#808080;strokeWidth=2;" parent="1" source="11" target="13" edge="1">
                    <mxGeometry relative="1" as="geometry">
                        <Array as="points">
                            <mxPoint x="673" y="182.5"/>
                            <mxPoint x="673" y="83.5"/>
                        </Array>
                    </mxGeometry>
                </mxCell>
                <mxCell id="11" value="AWS Lambda" style="sketch=0;outlineConnect=0;fontColor=#232F3E;gradientColor=none;strokeColor=#ffffff;fillColor=#232F3E;dashed=0;verticalLabelPosition=middle;verticalAlign=bottom;align=center;html=1;whiteSpace=wrap;fontSize=10;fontStyle=1;spacing=3;shape=mxgraph.aws4.productIcon;prIcon=mxgraph.aws4.lambda;" parent="1" vertex="1">
                    <mxGeometry x="562" y="133" width="80" height="100" as="geometry"/>
                </mxCell>
                <mxCell id="20" style="edgeStyle=orthogonalEdgeStyle;curved=1;html=1;strokeColor=#808080;strokeWidth=2;" parent="1" source="12" target="9" edge="1">
                    <mxGeometry relative="1" as="geometry"/>
                </mxCell>
                <mxCell id="22" style="edgeStyle=orthogonalEdgeStyle;html=1;strokeColor=#808080;strokeWidth=2;" parent="1" source="12" target="13" edge="1">
                    <mxGeometry relative="1" as="geometry">
                        <Array as="points">
                            <mxPoint x="673" y="-3.5"/>
                            <mxPoint x="673" y="83.5"/>
                        </Array>
                    </mxGeometry>
                </mxCell>
                <mxCell id="12" value="AWS Lambda" style="sketch=0;outlineConnect=0;fontColor=#232F3E;gradientColor=none;strokeColor=#ffffff;fillColor=#232F3E;dashed=0;verticalLabelPosition=middle;verticalAlign=bottom;align=center;html=1;whiteSpace=wrap;fontSize=10;fontStyle=1;spacing=3;shape=mxgraph.aws4.productIcon;prIcon=mxgraph.aws4.lambda;" parent="1" vertex="1">
                    <mxGeometry x="560" y="-53" width="80" height="100" as="geometry"/>
                </mxCell>
                <mxCell id="72" style="edgeStyle=orthogonalEdgeStyle;html=1;strokeColor=#808080;strokeWidth=2;" parent="1" source="13" target="66" edge="1">
                    <mxGeometry relative="1" as="geometry">
                        <Array as="points">
                            <mxPoint x="863" y="84"/>
                            <mxPoint x="863" y="-3"/>
                        </Array>
                    </mxGeometry>
                </mxCell>
                <mxCell id="75" style="edgeStyle=orthogonalEdgeStyle;html=1;strokeColor=#808080;strokeWidth=2;" parent="1" source="13" target="69" edge="1">
                    <mxGeometry relative="1" as="geometry">
                        <Array as="points">
                            <mxPoint x="862" y="84"/>
                            <mxPoint x="862" y="179"/>
                        </Array>
                    </mxGeometry>
                </mxCell>
                <mxCell id="100" style="edgeStyle=orthogonalEdgeStyle;html=1;strokeColor=#808080;strokeWidth=2;fontSize=10;fontColor=#808080;shape=link;" parent="1" source="13" target="97" edge="1">
                    <mxGeometry relative="1" as="geometry"/>
                </mxCell>
                <mxCell id="13" value="Amazon S3" style="sketch=0;outlineConnect=0;fontColor=#232F3E;gradientColor=none;strokeColor=#ffffff;fillColor=#232F3E;dashed=0;verticalLabelPosition=middle;verticalAlign=bottom;align=center;html=1;whiteSpace=wrap;fontSize=10;fontStyle=1;spacing=3;shape=mxgraph.aws4.productIcon;prIcon=mxgraph.aws4.s3;" parent="1" vertex="1">
                    <mxGeometry x="728" y="33" width="80" height="100" as="geometry"/>
                </mxCell>
                <mxCell id="29" value="&lt;b&gt;&lt;font style=&quot;font-size: 18px;&quot;&gt;1&lt;/font&gt;&lt;/b&gt;" style="ellipse;whiteSpace=wrap;html=1;aspect=fixed;fontColor=#808080;fillColor=#18141D;strokeColor=#F0F0F0;" parent="1" vertex="1">
                    <mxGeometry x="46" y="44" width="29" height="29" as="geometry"/>
                </mxCell>
                <mxCell id="32" value="&lt;b&gt;&lt;font style=&quot;font-size: 18px;&quot;&gt;5&lt;/font&gt;&lt;/b&gt;" style="ellipse;whiteSpace=wrap;html=1;aspect=fixed;fontColor=#808080;fillColor=#18141D;strokeColor=#F0F0F0;" parent="1" vertex="1">
                    <mxGeometry x="327" y="44" width="29" height="29" as="geometry"/>
                </mxCell>
                <mxCell id="33" value="&lt;b&gt;&lt;font style=&quot;font-size: 18px;&quot;&gt;6&lt;/font&gt;&lt;/b&gt;" style="ellipse;whiteSpace=wrap;html=1;aspect=fixed;fontColor=#808080;fillColor=#18141D;strokeColor=#F0F0F0;" parent="1" vertex="1">
                    <mxGeometry x="512" y="-46.5" width="29" height="29" as="geometry"/>
                </mxCell>
                <mxCell id="34" value="&lt;b&gt;&lt;font style=&quot;font-size: 18px;&quot;&gt;7&lt;/font&gt;&lt;/b&gt;" style="ellipse;whiteSpace=wrap;html=1;aspect=fixed;fontColor=#808080;fillColor=#18141D;strokeColor=#F0F0F0;" parent="1" vertex="1">
                    <mxGeometry x="687" y="44" width="29" height="29" as="geometry"/>
                </mxCell>
                <mxCell id="37" value="&lt;font style=&quot;font-size: 12px;&quot;&gt;Fundamentus&lt;br&gt;Website&lt;br&gt;&lt;/font&gt;" style="verticalLabelPosition=bottom;sketch=0;aspect=fixed;html=1;verticalAlign=top;strokeColor=none;align=center;outlineConnect=0;shape=mxgraph.citrix.globe;fontSize=18;fontColor=#808080;" parent="1" vertex="1">
                    <mxGeometry x="-176" y="32" width="72.22" height="69" as="geometry"/>
                </mxCell>
                <mxCell id="41" value="&lt;b&gt;&lt;font style=&quot;font-size: 18px;&quot;&gt;4&lt;/font&gt;&lt;/b&gt;" style="ellipse;whiteSpace=wrap;html=1;aspect=fixed;fontColor=#808080;fillColor=#18141D;strokeColor=#F0F0F0;" parent="1" vertex="1">
                    <mxGeometry x="186" y="-50" width="29" height="29" as="geometry"/>
                </mxCell>
                <mxCell id="46" value="&lt;b&gt;&lt;font style=&quot;font-size: 18px;&quot;&gt;6&lt;/font&gt;&lt;/b&gt;" style="ellipse;whiteSpace=wrap;html=1;aspect=fixed;fontColor=#808080;fillColor=#18141D;strokeColor=#F0F0F0;" parent="1" vertex="1">
                    <mxGeometry x="512" y="141" width="29" height="29" as="geometry"/>
                </mxCell>
                <mxCell id="49" style="edgeStyle=orthogonalEdgeStyle;html=1;strokeColor=#808080;strokeWidth=2;" parent="1" source="47" target="8" edge="1">
                    <mxGeometry relative="1" as="geometry"/>
                </mxCell>
                <mxCell id="52" style="edgeStyle=orthogonalEdgeStyle;html=1;strokeColor=#808080;strokeWidth=2;dashed=1;dashPattern=1 1;" parent="1" source="47" target="51" edge="1">
                    <mxGeometry relative="1" as="geometry">
                        <Array as="points">
                            <mxPoint x="130" y="187"/>
                            <mxPoint x="76" y="187"/>
                        </Array>
                    </mxGeometry>
                </mxCell>
                <mxCell id="55" style="edgeStyle=orthogonalEdgeStyle;html=1;strokeColor=#808080;strokeWidth=2;dashed=1;dashPattern=1 1;" parent="1" source="47" target="53" edge="1">
                    <mxGeometry relative="1" as="geometry">
                        <Array as="points">
                            <mxPoint x="130" y="188"/>
                            <mxPoint x="181" y="188"/>
                        </Array>
                    </mxGeometry>
                </mxCell>
                <mxCell id="47" value="AWS Lambda" style="sketch=0;outlineConnect=0;fontColor=#232F3E;gradientColor=none;strokeColor=#ffffff;fillColor=#232F3E;dashed=0;verticalLabelPosition=middle;verticalAlign=bottom;align=center;html=1;whiteSpace=wrap;fontSize=10;fontStyle=1;spacing=3;shape=mxgraph.aws4.productIcon;prIcon=mxgraph.aws4.lambda;" parent="1" vertex="1">
                    <mxGeometry x="90" y="33.5" width="80" height="100" as="geometry"/>
                </mxCell>
                <mxCell id="50" value="&lt;b&gt;&lt;font style=&quot;font-size: 18px;&quot;&gt;3&lt;/font&gt;&lt;/b&gt;" style="ellipse;whiteSpace=wrap;html=1;aspect=fixed;fontColor=#808080;fillColor=#18141D;strokeColor=#F0F0F0;" parent="1" vertex="1">
                    <mxGeometry x="186" y="44" width="29" height="29" as="geometry"/>
                </mxCell>
                <mxCell id="51" value="Amazon S3" style="sketch=0;outlineConnect=0;fontColor=#232F3E;gradientColor=none;strokeColor=#ffffff;fillColor=#232F3E;dashed=0;verticalLabelPosition=middle;verticalAlign=bottom;align=center;html=1;whiteSpace=wrap;fontSize=10;fontStyle=1;spacing=3;shape=mxgraph.aws4.productIcon;prIcon=mxgraph.aws4.s3;" parent="1" vertex="1">
                    <mxGeometry x="36" y="214" width="80" height="100" as="geometry"/>
                </mxCell>
                <mxCell id="53" value="&lt;font style=&quot;background-color: rgb(24, 20, 29);&quot; color=&quot;#808080&quot;&gt;Glue Data&lt;br&gt;Catalog&lt;/font&gt;" style="sketch=0;outlineConnect=0;fontColor=#232F3E;gradientColor=none;fillColor=#CCCCCC;strokeColor=none;dashed=0;verticalLabelPosition=bottom;verticalAlign=top;align=center;html=1;fontSize=12;fontStyle=0;aspect=fixed;pointerEvents=1;shape=mxgraph.aws4.glue_data_catalog;" parent="1" vertex="1">
                    <mxGeometry x="142" y="217.5" width="77.54" height="84" as="geometry"/>
                </mxCell>
                <mxCell id="56" value="&lt;b&gt;&lt;font style=&quot;font-size: 18px;&quot;&gt;2&lt;/font&gt;&lt;/b&gt;" style="ellipse;whiteSpace=wrap;html=1;aspect=fixed;fontColor=#808080;fillColor=#18141D;strokeColor=#F0F0F0;" parent="1" vertex="1">
                    <mxGeometry x="114" y="145" width="29" height="29" as="geometry"/>
                </mxCell>
                <mxCell id="57" value="&lt;i&gt;Assync&lt;/i&gt;" style="text;html=1;align=center;verticalAlign=middle;resizable=0;points=[];autosize=1;strokeColor=none;fillColor=none;fontColor=#808080;" parent="1" vertex="1">
                    <mxGeometry x="170" y="86" width="57" height="26" as="geometry"/>
                </mxCell>
                <mxCell id="58" value="&lt;i&gt;Trigger&lt;/i&gt;" style="text;html=1;align=center;verticalAlign=middle;resizable=0;points=[];autosize=1;strokeColor=none;fillColor=none;fontColor=#808080;" parent="1" vertex="1">
                    <mxGeometry x="31" y="86" width="55" height="26" as="geometry"/>
                </mxCell>
                <mxCell id="59" value="&lt;i&gt;Send&lt;/i&gt;" style="text;html=1;align=center;verticalAlign=middle;resizable=0;points=[];autosize=1;strokeColor=none;fillColor=none;fontColor=#808080;" parent="1" vertex="1">
                    <mxGeometry x="318.5" y="87" width="46" height="26" as="geometry"/>
                </mxCell>
                <mxCell id="60" value="&lt;i&gt;Poll&lt;/i&gt;" style="text;html=1;align=center;verticalAlign=middle;resizable=0;points=[];autosize=1;strokeColor=none;fillColor=none;fontColor=#808080;" parent="1" vertex="1">
                    <mxGeometry x="507.5" y="2" width="38" height="26" as="geometry"/>
                </mxCell>
                <mxCell id="61" value="&lt;i&gt;Poll&lt;/i&gt;" style="text;html=1;align=center;verticalAlign=middle;resizable=0;points=[];autosize=1;strokeColor=none;fillColor=none;fontColor=#808080;" parent="1" vertex="1">
                    <mxGeometry x="507.5" y="188" width="38" height="26" as="geometry"/>
                </mxCell>
                <mxCell id="62" value="&lt;i&gt;Put&lt;/i&gt;" style="text;html=1;align=center;verticalAlign=middle;resizable=0;points=[];autosize=1;strokeColor=none;fillColor=none;fontColor=#808080;" parent="1" vertex="1">
                    <mxGeometry x="684" y="87" width="36" height="26" as="geometry"/>
                </mxCell>
                <mxCell id="64" value="&lt;i&gt;DeleteObject&lt;br&gt;&lt;/i&gt;" style="text;html=1;align=center;verticalAlign=middle;resizable=0;points=[];autosize=1;strokeColor=none;fillColor=none;fontColor=#808080;" parent="1" vertex="1">
                    <mxGeometry x="-23" y="186" width="87" height="26" as="geometry"/>
                </mxCell>
                <mxCell id="65" value="&lt;i&gt;DropPartition&lt;br&gt;&lt;/i&gt;" style="text;html=1;align=center;verticalAlign=middle;resizable=0;points=[];autosize=1;strokeColor=none;fillColor=none;fontColor=#808080;" parent="1" vertex="1">
                    <mxGeometry x="189" y="186" width="88" height="26" as="geometry"/>
                </mxCell>
                <mxCell id="82" style="edgeStyle=orthogonalEdgeStyle;html=1;strokeColor=#808080;strokeWidth=2;fontSize=10;fontColor=#808080;" parent="1" source="66" target="80" edge="1">
                    <mxGeometry relative="1" as="geometry"/>
                </mxCell>
                <mxCell id="66" value="AWS Lambda" style="sketch=0;outlineConnect=0;fontColor=#232F3E;gradientColor=none;strokeColor=#ffffff;fillColor=#232F3E;dashed=0;verticalLabelPosition=middle;verticalAlign=bottom;align=center;html=1;whiteSpace=wrap;fontSize=10;fontStyle=1;spacing=3;shape=mxgraph.aws4.productIcon;prIcon=mxgraph.aws4.lambda;" parent="1" vertex="1">
                    <mxGeometry x="898" y="-53" width="80" height="100" as="geometry"/>
                </mxCell>
                <mxCell id="83" style="edgeStyle=orthogonalEdgeStyle;html=1;strokeColor=#808080;strokeWidth=2;fontSize=10;fontColor=#808080;" parent="1" source="69" target="80" edge="1">
                    <mxGeometry relative="1" as="geometry"/>
                </mxCell>
                <mxCell id="69" value="AWS Lambda" style="sketch=0;outlineConnect=0;fontColor=#232F3E;gradientColor=none;strokeColor=#ffffff;fillColor=#232F3E;dashed=0;verticalLabelPosition=middle;verticalAlign=bottom;align=center;html=1;whiteSpace=wrap;fontSize=10;fontStyle=1;spacing=3;shape=mxgraph.aws4.productIcon;prIcon=mxgraph.aws4.lambda;" parent="1" vertex="1">
                    <mxGeometry x="898" y="129" width="80" height="100" as="geometry"/>
                </mxCell>
                <mxCell id="73" value="&lt;i&gt;Trigger&lt;/i&gt;" style="text;html=1;align=center;verticalAlign=middle;resizable=0;points=[];autosize=1;strokeColor=none;fillColor=none;fontColor=#808080;" parent="1" vertex="1">
                    <mxGeometry x="806" y="87" width="55" height="26" as="geometry"/>
                </mxCell>
                <mxCell id="76" value="SoR" style="rounded=1;whiteSpace=wrap;html=1;arcSize=50;fillColor=#d80073;fontColor=#ffffff;strokeColor=none;fontSize=10;" parent="1" vertex="1">
                    <mxGeometry x="12.5" y="322" width="39" height="20" as="geometry"/>
                </mxCell>
                <mxCell id="77" value="SoT" style="rounded=1;whiteSpace=wrap;html=1;arcSize=50;fillColor=#1ba1e2;fontColor=#ffffff;strokeColor=none;fontSize=10;" parent="1" vertex="1">
                    <mxGeometry x="56.5" y="322" width="39" height="20" as="geometry"/>
                </mxCell>
                <mxCell id="78" value="Spec" style="rounded=1;whiteSpace=wrap;html=1;arcSize=50;fillColor=#6a00ff;fontColor=#ffffff;strokeColor=none;fontSize=10;" parent="1" vertex="1">
                    <mxGeometry x="100.5" y="322" width="39" height="20" as="geometry"/>
                </mxCell>
                <mxCell id="79" value="SoR" style="rounded=1;whiteSpace=wrap;html=1;arcSize=50;fillColor=#d80073;fontColor=#ffffff;strokeColor=none;fontSize=10;" parent="1" vertex="1">
                    <mxGeometry x="748.5" y="5" width="39" height="20" as="geometry"/>
                </mxCell>
                <mxCell id="86" style="edgeStyle=orthogonalEdgeStyle;html=1;strokeColor=#808080;strokeWidth=2;fontSize=10;fontColor=#808080;" parent="1" target="85" edge="1">
                    <mxGeometry relative="1" as="geometry">
                        <mxPoint x="1145" y="82.07692307692287" as="sourcePoint"/>
                    </mxGeometry>
                </mxCell>
                <mxCell id="101" style="edgeStyle=orthogonalEdgeStyle;shape=link;html=1;strokeColor=#808080;strokeWidth=2;fontSize=10;fontColor=#808080;" parent="1" source="80" target="98" edge="1">
                    <mxGeometry relative="1" as="geometry"/>
                </mxCell>
                <mxCell id="80" value="Amazon S3" style="sketch=0;outlineConnect=0;fontColor=#232F3E;gradientColor=none;strokeColor=#ffffff;fillColor=#232F3E;dashed=0;verticalLabelPosition=middle;verticalAlign=bottom;align=center;html=1;whiteSpace=wrap;fontSize=10;fontStyle=1;spacing=3;shape=mxgraph.aws4.productIcon;prIcon=mxgraph.aws4.s3;" parent="1" vertex="1">
                    <mxGeometry x="1072" y="32" width="80" height="100" as="geometry"/>
                </mxCell>
                <mxCell id="81" value="SoT" style="rounded=1;whiteSpace=wrap;html=1;arcSize=50;fillColor=#1ba1e2;fontColor=#ffffff;strokeColor=none;fontSize=10;" parent="1" vertex="1">
                    <mxGeometry x="1092.5" y="2" width="39" height="20" as="geometry"/>
                </mxCell>
                <mxCell id="84" value="&lt;i&gt;Put&lt;/i&gt;" style="text;html=1;align=center;verticalAlign=middle;resizable=0;points=[];autosize=1;strokeColor=none;fillColor=none;fontColor=#808080;" parent="1" vertex="1">
                    <mxGeometry x="1030" y="86" width="36" height="26" as="geometry"/>
                </mxCell>
                <mxCell id="89" style="edgeStyle=orthogonalEdgeStyle;html=1;strokeColor=#808080;strokeWidth=2;fontSize=10;fontColor=#808080;" parent="1" source="85" target="88" edge="1">
                    <mxGeometry relative="1" as="geometry"/>
                </mxCell>
                <mxCell id="85" value="AWS Lambda" style="sketch=0;outlineConnect=0;fontColor=#232F3E;gradientColor=none;strokeColor=#ffffff;fillColor=#232F3E;dashed=0;verticalLabelPosition=middle;verticalAlign=bottom;align=center;html=1;whiteSpace=wrap;fontSize=10;fontStyle=1;spacing=3;shape=mxgraph.aws4.productIcon;prIcon=mxgraph.aws4.lambda;" parent="1" vertex="1">
                    <mxGeometry x="1216" y="31.5" width="80" height="100" as="geometry"/>
                </mxCell>
                <mxCell id="87" value="&lt;i&gt;Trigger&lt;/i&gt;" style="text;html=1;align=center;verticalAlign=middle;resizable=0;points=[];autosize=1;strokeColor=none;fillColor=none;fontColor=#808080;" parent="1" vertex="1">
                    <mxGeometry x="1150" y="87" width="55" height="26" as="geometry"/>
                </mxCell>
                <mxCell id="102" style="edgeStyle=orthogonalEdgeStyle;shape=link;html=1;strokeColor=#808080;strokeWidth=2;fontSize=10;fontColor=#808080;" parent="1" source="88" target="99" edge="1">
                    <mxGeometry relative="1" as="geometry"/>
                </mxCell>
                <mxCell id="88" value="Amazon S3" style="sketch=0;outlineConnect=0;fontColor=#232F3E;gradientColor=none;strokeColor=#ffffff;fillColor=#232F3E;dashed=0;verticalLabelPosition=middle;verticalAlign=bottom;align=center;html=1;whiteSpace=wrap;fontSize=10;fontStyle=1;spacing=3;shape=mxgraph.aws4.productIcon;prIcon=mxgraph.aws4.s3;" parent="1" vertex="1">
                    <mxGeometry x="1357" y="31.5" width="80" height="100" as="geometry"/>
                </mxCell>
                <mxCell id="90" value="&lt;i&gt;Put&lt;/i&gt;" style="text;html=1;align=center;verticalAlign=middle;resizable=0;points=[];autosize=1;strokeColor=none;fillColor=none;fontColor=#808080;" parent="1" vertex="1">
                    <mxGeometry x="1305" y="87" width="36" height="26" as="geometry"/>
                </mxCell>
                <mxCell id="91" value="Spec" style="rounded=1;whiteSpace=wrap;html=1;arcSize=50;fillColor=#6a00ff;fontColor=#ffffff;strokeColor=none;fontSize=10;" parent="1" vertex="1">
                    <mxGeometry x="1377.5" y="2" width="39" height="20" as="geometry"/>
                </mxCell>
                <mxCell id="92" value="&lt;b&gt;&lt;font style=&quot;font-size: 18px;&quot;&gt;8&lt;/font&gt;&lt;/b&gt;" style="ellipse;whiteSpace=wrap;html=1;aspect=fixed;fontColor=#808080;fillColor=#18141D;strokeColor=#F0F0F0;" parent="1" vertex="1">
                    <mxGeometry x="821" y="44" width="29" height="29" as="geometry"/>
                </mxCell>
                <mxCell id="93" value="&lt;b&gt;&lt;font style=&quot;font-size: 18px;&quot;&gt;9&lt;/font&gt;&lt;/b&gt;" style="ellipse;whiteSpace=wrap;html=1;aspect=fixed;fontColor=#808080;fillColor=#18141D;strokeColor=#F0F0F0;" parent="1" vertex="1">
                    <mxGeometry x="1033.5" y="44" width="29" height="29" as="geometry"/>
                </mxCell>
                <mxCell id="95" value="&lt;b&gt;&lt;font style=&quot;font-size: 18px;&quot;&gt;10&lt;/font&gt;&lt;/b&gt;" style="ellipse;whiteSpace=wrap;html=1;aspect=fixed;fontColor=#808080;fillColor=#18141D;strokeColor=#F0F0F0;" parent="1" vertex="1">
                    <mxGeometry x="1166" y="44" width="29" height="29" as="geometry"/>
                </mxCell>
                <mxCell id="96" value="&lt;b&gt;&lt;font style=&quot;font-size: 18px;&quot;&gt;11&lt;/font&gt;&lt;/b&gt;" style="ellipse;whiteSpace=wrap;html=1;aspect=fixed;fontColor=#808080;fillColor=#18141D;strokeColor=#F0F0F0;" parent="1" vertex="1">
                    <mxGeometry x="1312" y="44" width="29" height="29" as="geometry"/>
                </mxCell>
                <mxCell id="97" value="&lt;font style=&quot;background-color: rgb(24, 20, 29);&quot; color=&quot;#808080&quot;&gt;Glue Data&lt;br&gt;Catalog&lt;/font&gt;" style="sketch=0;outlineConnect=0;fontColor=#232F3E;gradientColor=none;fillColor=#CCCCCC;strokeColor=none;dashed=0;verticalLabelPosition=bottom;verticalAlign=top;align=center;html=1;fontSize=12;fontStyle=0;aspect=fixed;pointerEvents=1;shape=mxgraph.aws4.glue_data_catalog;" parent="1" vertex="1">
                    <mxGeometry x="742.62" y="159" width="50.77" height="55" as="geometry"/>
                </mxCell>
                <mxCell id="98" value="&lt;font style=&quot;background-color: rgb(24, 20, 29);&quot; color=&quot;#808080&quot;&gt;Glue Data&lt;br&gt;Catalog&lt;/font&gt;" style="sketch=0;outlineConnect=0;fontColor=#232F3E;gradientColor=none;fillColor=#CCCCCC;strokeColor=none;dashed=0;verticalLabelPosition=bottom;verticalAlign=top;align=center;html=1;fontSize=12;fontStyle=0;aspect=fixed;pointerEvents=1;shape=mxgraph.aws4.glue_data_catalog;" parent="1" vertex="1">
                    <mxGeometry x="1086.62" y="159" width="50.77" height="55" as="geometry"/>
                </mxCell>
                <mxCell id="99" value="&lt;font style=&quot;background-color: rgb(24, 20, 29);&quot; color=&quot;#808080&quot;&gt;Glue Data&lt;br&gt;Catalog&lt;/font&gt;" style="sketch=0;outlineConnect=0;fontColor=#232F3E;gradientColor=none;fillColor=#CCCCCC;strokeColor=none;dashed=0;verticalLabelPosition=bottom;verticalAlign=top;align=center;html=1;fontSize=12;fontStyle=0;aspect=fixed;pointerEvents=1;shape=mxgraph.aws4.glue_data_catalog;" parent="1" vertex="1">
                    <mxGeometry x="1371.62" y="159" width="50.77" height="55" as="geometry"/>
                </mxCell>
            </root>
        </mxGraphModel>
    </diagram>
</mxfile>